<svg width="1400" height="159" viewBox="0 0 1400 159" fill="none" xmlns="http://www.w3.org/2000/svg">
<g clip-path="url(#clip0_976_1025)">
<rect width="1400" height="159" fill="#F1F1F1"/>
<path d="M81.7913 168H25.9405C13.2638 168 5.73134 168.184 -1.25001 168.551C-0.147691 162.121 0.219747 154.037 0.219747 141.728V44.7241C0.219747 31.8638 -0.147691 23.9638 -1.25001 15.1453H38.8009C37.5148 24.6987 37.3311 29.8428 37.3311 44.173V135.298H81.7913C97.4074 135.298 103.654 135.114 112.289 134.012V169.286C105.491 168.367 96.4888 168 81.7913 168ZM95.3033 15.1453H135.722C134.619 22.6778 134.252 28.9243 134.252 42.3358V140.809C134.252 153.486 134.619 160.284 135.722 168H95.3033C96.4056 160.835 96.773 153.119 96.773 140.809V42.3358C96.773 28.5568 96.4056 23.2289 95.3033 15.1453ZM181.973 38.1102L216.88 90.2866C222.208 98.1865 225.698 104.066 230.108 112.149C229.373 103.698 229.005 95.247 229.005 84.9587V43.0707C229.005 30.9452 228.638 23.5964 227.535 15.1453H266.668C265.565 23.4127 265.198 31.1289 265.198 43.0707V140.626C265.198 151.833 265.749 160.284 266.668 168H226.433C223.126 161.019 218.901 154.221 212.654 144.668L178.666 93.4098C173.706 86.061 170.582 80.5495 165.438 70.8123C166.357 79.0797 166.724 89.1843 166.724 98.1865V139.34C166.724 152.016 167.092 160.1 168.194 168H129.062C130.164 160.835 130.531 152.751 130.531 139.156V42.5195C130.531 31.8638 130.164 23.5964 129.062 15.1453H168.929C170.766 20.1057 174.808 27.4545 181.973 38.1102ZM358.164 112.149H349.346C339.976 112.149 336.853 112.333 331.158 113.068V80.5495C337.955 81.4681 342.365 81.6518 355.225 81.6518H369.922C379.292 81.6518 386.09 81.4681 394.173 80.7332C393.255 87.7145 392.887 93.7773 392.887 105.719V126.296C392.887 139.34 393.071 145.219 394.173 153.67C384.069 160.1 379.108 162.488 370.841 165.244C358.899 169.286 345.488 171.491 331.892 171.491C308.56 171.491 290.372 165.06 277.328 151.833C263.365 137.87 255.649 116.007 255.649 90.8378C255.649 42.5195 284.86 11.8383 331.158 11.8383C354.123 11.8383 371.576 19.0034 383.701 33.701C388.662 39.3963 391.601 44.9078 394.541 53.7264L357.062 62.3612C355.041 55.7473 352.837 52.2566 348.795 49.1334C344.018 45.2753 337.955 43.4381 330.239 43.4381C306.723 43.4381 293.863 60.524 293.863 91.3889C293.863 108.475 297.721 121.703 305.069 129.786C310.948 136.217 319.951 139.707 331.525 139.707C341.262 139.707 349.162 137.686 358.164 133.093V112.149ZM486.184 15.1453H525.867C524.765 23.0452 524.398 29.6591 524.398 42.8869V106.086C524.398 147.975 499.228 171.674 454.952 171.674C432.17 171.674 413.615 165.244 402.592 153.67C391.936 142.279 386.424 126.296 386.424 105.719V42.8869C386.424 30.2103 386.057 22.1266 384.954 15.1453H424.638C423.536 21.9429 423.168 29.2917 423.168 42.8869V106.086C423.168 129.235 433.64 140.258 455.135 140.258C477.182 140.258 487.654 129.235 487.654 106.086V42.8869C487.654 29.108 487.286 23.4127 486.184 15.1453ZM665.994 168H623.003C621.534 159.181 620.431 154.405 618.594 148.158L613.634 132.542H561.274L556.313 148.158C553.925 155.507 552.639 161.202 551.72 168H508.73C511.486 162.488 513.139 158.079 517.548 145.586L557.232 34.987C560.539 25.9847 562.192 20.4732 563.111 15.1453H611.062C612.348 20.4732 613.634 25.2499 617.308 34.987L657.175 145.586C660.666 155.323 663.605 162.856 665.994 168ZM604.631 101.677L587.178 46.5613L570.092 101.677H604.631ZM828.241 168H785.251C783.781 159.181 782.679 154.405 780.842 148.158L775.881 132.542H723.521L718.561 148.158C716.172 155.507 714.886 161.202 713.968 168H670.977C673.733 162.488 675.386 158.079 679.796 145.586L719.479 34.987C722.786 25.9847 724.44 20.4732 725.358 15.1453H773.309C774.595 20.4732 775.881 25.2499 779.555 34.987L819.423 145.586C822.913 155.323 825.853 162.856 828.241 168ZM766.879 101.677L749.425 46.5613L732.34 101.677H766.879ZM910.385 168H878.418C877.5 161.57 875.479 154.772 870.518 140.809L853.616 91.9401C853.432 91.0215 847.921 73.9356 847.37 72.4658C845.349 65.8519 845.349 65.8519 844.43 63.2798C845.532 74.8542 846.267 89.9192 846.267 99.6563V139.523C846.267 152.2 846.635 160.284 847.737 168H811.544C812.646 159.733 813.014 152.016 813.014 139.523V43.8055C813.014 32.7824 812.463 23.0452 811.544 15.1453H860.046C861.332 23.0452 862.802 28.9243 867.028 41.0497L894.585 120.233L921.96 41.0497C926.185 28.7405 927.655 22.8615 928.757 15.1453H977.443C976.341 23.9638 975.973 31.4963 975.973 43.8055V139.523C975.973 153.486 976.341 160.651 977.443 168H941.25C942.353 159.549 942.72 152.568 942.72 139.523V99.4726C942.72 95.0633 943.271 81.2843 943.639 75.589C944.19 65.8519 944.19 65.8519 944.373 63.0961C940.332 77.4262 938.494 84.0401 936.106 90.654L918.285 140.993C913.692 154.037 911.304 162.121 910.385 168ZM971.072 15.1453H1011.49C1010.39 22.6778 1010.02 28.9243 1010.02 42.3358V140.809C1010.02 153.486 1010.39 160.284 1011.49 168H971.072C972.174 160.835 972.541 153.119 972.541 140.809V42.3358C972.541 28.5568 972.174 23.2289 971.072 15.1453ZM1000.24 121.886L1038.45 118.212C1039.19 124.826 1040.47 128.133 1043.23 131.807C1047.64 137.319 1055.35 140.442 1064.72 140.442C1078.87 140.442 1087.32 134.196 1087.32 123.907C1087.32 118.212 1084.38 113.252 1079.6 111.047C1075.75 109.21 1071.15 107.924 1052.05 103.514C1035.14 99.84 1029.26 97.6354 1022.47 92.8587C1010.89 84.775 1004.65 72.4658 1004.65 57.5845C1004.65 29.2917 1027.43 11.4709 1063.62 11.4709C1086.95 11.4709 1104.77 18.6359 1114.69 32.4149C1119.29 38.4777 1121.49 43.9893 1123.88 54.4613L1084.93 58.6868C1082.73 46.7451 1076.11 41.7846 1062.15 41.7846C1050.94 41.7846 1042.68 47.8474 1042.68 56.2985C1042.68 61.4426 1045.43 65.3007 1051.31 68.0565C1054.99 69.71 1054.99 69.71 1076.66 74.1193C1090.63 77.0588 1099.45 80.182 1106.43 84.5913C1119.65 92.8587 1126.27 105.168 1126.27 122.07C1126.27 135.849 1121.86 147.607 1113.41 155.875C1102.75 166.163 1086.59 171.491 1065.09 171.491C1049.47 171.491 1034.04 168.184 1024.12 162.488C1014.93 157.344 1008.14 149.444 1004.28 138.972C1002.44 134.563 1001.52 130.337 1000.24 121.886ZM1111.14 121.886L1149.36 118.212C1150.09 124.826 1151.38 128.133 1154.13 131.807C1158.54 137.319 1166.26 140.442 1175.63 140.442C1189.78 140.442 1198.23 134.196 1198.23 123.907C1198.23 118.212 1195.29 113.252 1190.51 111.047C1186.65 109.21 1182.06 107.924 1162.95 103.514C1146.05 99.84 1140.17 97.6354 1133.37 92.8587C1121.8 84.775 1115.55 72.4658 1115.55 57.5845C1115.55 29.2917 1138.33 11.4709 1174.53 11.4709C1197.86 11.4709 1215.68 18.6359 1225.6 32.4149C1230.19 38.4777 1232.4 43.9893 1234.79 54.4613L1195.84 58.6868C1193.63 46.7451 1187.02 41.7846 1173.06 41.7846C1161.85 41.7846 1153.58 47.8474 1153.58 56.2985C1153.58 61.4426 1156.34 65.3007 1162.22 68.0565C1165.89 69.71 1165.89 69.71 1187.57 74.1193C1201.53 77.0588 1210.35 80.182 1217.33 84.5913C1230.56 92.8587 1237.18 105.168 1237.18 122.07C1237.18 135.849 1232.77 147.607 1224.31 155.875C1213.66 166.163 1197.49 171.491 1176 171.491C1160.38 171.491 1144.95 168.184 1135.03 162.488C1125.84 157.344 1119.04 149.444 1115.19 138.972C1113.35 134.563 1112.43 130.337 1111.14 121.886ZM1226.64 15.1453H1267.06C1265.96 22.6778 1265.59 28.9243 1265.59 42.3358V140.809C1265.59 153.486 1265.96 160.284 1267.06 168H1226.64C1227.75 160.835 1228.11 153.119 1228.11 140.809V42.3358C1228.11 28.5568 1227.75 23.2289 1226.64 15.1453ZM1330.03 11.8383C1375.23 11.8383 1404.07 42.7032 1404.07 90.8378C1404.07 139.34 1374.49 171.491 1329.85 171.491C1284.84 171.491 1255.81 140.075 1255.81 91.3889C1255.81 42.8869 1284.84 11.8383 1330.03 11.8383ZM1330.03 139.707C1352.26 139.707 1365.86 121.335 1365.86 91.2052C1365.86 61.4426 1352.26 43.4381 1330.03 43.4381C1307.62 43.4381 1293.84 61.6263 1293.84 91.2052C1293.84 121.151 1307.62 139.707 1330.03 139.707Z" fill="black"/>
</g>
<defs>
<clipPath id="clip0_976_1025">
<rect width="1400" height="159" fill="white"/>
</clipPath>
</defs>
</svg>
